<?xml version="1.0" encoding="UTF-8"?>
<svg width="60px" height="60px" viewBox="0 0 60 60" version="1.1" xmlns="http://www.w3.org/2000/svg" xmlns:xlink="http://www.w3.org/1999/xlink">
    <title>Clipped Copy 3</title>
    <g id="Page-1" stroke="none" stroke-width="1" fill="none" fill-rule="evenodd">
        <g id="Cosmobile---homepage-2" transform="translate(-343.000000, -1379.000000)" fill="#DDDA08" fill-rule="nonzero">
            <g id="Clipped-Copy-3" transform="translate(343.000000, 1379.000000)">
                <path d="M17.2572632,48.9924947 C17.2572632,52.4064316 15.3314526,54.1134 11.4360632,54.1134 C7.71574737,54.1134 5.65863158,52.3626632 5.65863158,48.9924947 L5.65863158,39.8886632 C5.65863158,36.5184947 7.71574737,34.7677579 11.4360632,34.7677579 C15.3314526,34.7677579 17.2572632,36.4747263 17.2572632,39.8886632 L17.2572632,48.9924947 L17.2572632,48.9924947 Z M40.2982105,59.4 C42.8305263,58.1057053 44.2061053,55.8641368 44.2061053,53.0191895 C44.2061053,48.1171263 41.2736211,46.4976947 34.9272,45.8411684 C31.7321053,45.5347895 30.6816632,45.1408737 30.6816632,43.8715895 C30.6816632,42.8211474 31.7758737,42.2959263 33.9205263,42.2959263 C35.6712632,42.2959263 36.9405474,42.8649158 37.7283789,43.9591263 C38.4724421,45.0095684 38.6912842,45.1408737 39.9605684,44.6594211 L42.5429053,43.5652105 C43.6808842,43.0837579 43.9872632,42.2959263 43.4182737,41.2454842 C41.7550737,38.1379263 38.5162105,36.5622632 33.7016842,36.5622632 C27.6178737,36.5622632 24.2914737,39.4509789 24.2914737,43.8715895 C24.2914737,46.5414632 25.2981474,48.3797368 27.0926526,49.3864105 C28.8871579,50.3930842 30.6378947,50.8307684 33.264,51.0496105 C36.8967789,51.3997579 37.9034526,51.7499053 37.9034526,53.1504947 C37.9034526,54.3322421 36.6341684,54.945 34.1393684,54.945 C31.9947158,54.945 30.6816632,54.3760105 30.1564421,53.2818 C29.6312211,52.1875895 29.106,51.9687474 28.0117895,52.3626632 L25.3419158,53.2380316 C24.2477053,53.6319474 23.8975579,54.3322421 24.2914737,55.4264526 C25.0105263,57.2037632 26.2516737,58.5308842 28.0071,59.4 L18.0544737,59.4 C22.1468211,57.6054947 24.3930789,53.9289474 24.3930789,48.8611895 L24.3930789,40.0199684 C24.3930789,32.6668737 19.6660895,28.2462632 11.4376263,28.2462632 C5.93218421,28.2462632 1.99146316,30.2455421 0.00156315789,33.7923474 L0.00156315789,12.5052632 C0.00156315789,5.59879702 5.60036018,0 12.5068263,0 L46.8963,0 C53.8027661,0 59.4015632,5.59879702 59.4015632,12.5052632 L59.4015632,46.8947368 C59.4015632,53.801203 53.8027661,59.4 46.8963,59.4 L40.2997737,59.4 L40.2982105,59.4 Z" id="Shape"></path>
            </g>
        </g>
    </g>
</svg>