<svg xmlns="http://www.w3.org/2000/svg" xmlns:xlink="http://www.w3.org/1999/xlink" width="300" height="50" viewBox="0 0 300 50">
    <defs>
        <path id="a" d="M0 6.954C0 10.516 2.86 13.4 6.39 13.4s6.391-2.884 6.391-6.446c0-3.56-2.86-6.445-6.39-6.445S0 3.395 0 6.954"/>
        <radialGradient id="b" cx="39.176%" cy="15.194%" r="39.947%" fx="39.176%" fy="15.194%" gradientTransform="matrix(1 0 0 .99145 0 .001)">
            <stop offset="0%" stop-color="#FFF"/>
            <stop offset="100%" stop-color="#DDDB00"/>
        </radialGradient>
        <path id="d" d="M0 6.916c0 3.56 2.86 6.446 6.39 6.446s6.391-2.885 6.391-6.446c0-3.56-2.86-6.445-6.39-6.445S0 3.357 0 6.916m2.26 0c0-2.296 1.854-4.164 4.13-4.164 2.278 0 4.13 1.868 4.13 4.164 0 2.297-1.852 4.165-4.13 4.165-2.276 0-4.13-1.868-4.13-4.165"/>
        <path id="f" d="M.056 23.431c0 12.77 10.264 23.12 22.923 23.12 12.659 0 22.924-10.35 22.924-23.12 0-12.77-10.265-23.12-22.924-23.12C10.319.31.056 10.66.056 23.43"/>
        <radialGradient id="g" cx="39.175%" cy="15.191%" r="38.412%" fx="39.175%" fy="15.191%" gradientTransform="matrix(1 0 0 1.05337 0 -.008)">
            <stop offset="0%" stop-color="#FFF"/>
            <stop offset="100%" stop-color="#DDDB00"/>
        </radialGradient>
        <path id="i" d="M.056 23.431c0 12.77 10.264 23.12 22.923 23.12 12.659 0 22.924-10.35 22.924-23.12 0-12.77-10.265-23.12-22.924-23.12C10.319.31.056 10.66.056 23.43m2.795 1.14c0-10.664 9.03-19.34 20.128-19.34s20.128 8.676 20.128 19.34c0 10.665-9.03 19.341-20.128 19.341-11.099 0-20.128-8.676-20.128-19.34"/>
        <path id="k" d="M.03.84h5.953v6.005H.029z"/>
    </defs>
    <g fill="none" fill-rule="evenodd">
        <g fill="#3A464E">
            <path d="M140.072 31.648c-.95-.17-1.17-.93-1.217-1.321V20.309c0-.64.394-1.632 1.59-1.637h4.01c1.291.005 1.607 1.118 1.607 1.738v9.91c-.046.39-.264 1.157-1.218 1.328h-4.772zm6.359-18.288h-7.866c-1.614 0-2.894.47-3.841 1.406-.947.938-1.42 2.651-1.42 4.243v12.156c-.089 3.945 1.762 5.917 5.55 5.917h7.656c1.596 0 2.858-.5 3.788-1.5.93-.998 1.394-2.348 1.394-4.046V18.744c0-1.45-.465-3.084-1.394-4.004-.93-.903-2.219-1.362-3.867-1.38zM217.614 31.63c-1.705 0-1.664-1.58-1.664-1.58l.003-10.143c.06-.413.305-1.164 1.294-1.298h4.614c1.033.14 1.254.952 1.3 1.35v8.82l-.02 1.26s.073 1.59-1.632 1.59h-3.895zm5.916-18.27h-7.866c-1.614 0-2.894.469-3.841 1.406-.947.938-1.42 2.203-1.42 3.795v12.603c-.089 3.946 1.762 5.918 5.55 5.918h7.655c1.596 0 2.86-.5 3.79-1.5.928-.999 1.393-2.348 1.393-4.046v-13.24c0-1.45-.465-2.636-1.394-3.557-.93-.901-2.218-1.36-3.867-1.379zM243.155 31.77h-4.919c-.655-.1-.77-.641-.79-.868V19.525c.02-.218.128-.726.716-.853h4.993c1.816 0 1.631 1.603 1.631 1.603v9.904s.074 1.591-1.631 1.591m2.026-18.41h-7.735V.862h-7.277V5.4h1.143c.56.112.7.562.732.804l.01 30.88h13.021c1.596 0 2.855-.47 3.776-1.408.921-.937 1.38-2.219 1.38-3.847V18.667c0-1.645-.451-2.941-1.354-3.888-.903-.946-2.136-1.42-3.696-1.42M258.066 9.76c.875 0 1.622-.314 2.245-.941a3.101 3.101 0 0 0 .933-2.265 3.13 3.13 0 0 0-.918-2.264c-.613-.627-1.347-.94-2.202-.94-.894 0-1.657.308-2.288.926a3.025 3.025 0 0 0-.948 2.249c0 .902.312 1.666.934 2.294.621.627 1.37.94 2.244.94M260.829 30.749V13.36h-7.424v5.434h1.031c.792.03.926.638.946.882v11.176c-.037.254-.188.705-.78.795h-1.197v5.435h9.323v-5.435h-1.108c-.685-.104-.78-.695-.791-.898M272.25 30.679v-.12h-.002V.862h-7.266V5.4h1.147c.532.105.684.515.726.764v24.711c-.043.257-.203.686-.778.774h-1.095v5.434h9.217v-5.434h-1.154c-.831-.126-.794-.97-.794-.97M207.249 31.827c-.527-.08-.705-.447-.764-.706V19.144c.014-1.91-.452-3.352-1.355-4.325-.904-.972-2.232-1.459-3.986-1.459h-26.738v4.985h.363c1.003.032.96.983.96.983v.12h.003V37.1h6.82v-5.273h-.766c-.761-.115-.793-.832-.793-.95v-.011V19.653c.056-.418.305-1.219 1.372-1.327h4.556c1.45.147 1.425 1.578 1.425 1.578l.013 17.196h6.826v-5.273h-.633c-.556-.084-.724-.489-.773-.748V19.904h.016s-.063-1.431 1.388-1.578h4.555c1.45.147 1.388 1.578 1.388 1.578v1.26h.018V37.1h6.717v-5.273h-.612zM171.007 24.213c-.92-.885-2.319-1.327-4.196-1.327h-7.156v-3.527c.04-.24.184-.63.67-.75h6.037c.45.111.606.452.66.694v1.168h5.104v-4.975c-.092-.589-.298-1.063-.62-1.412-.441-.471-1.084-.711-1.924-.724h-9.953c-1.578 0-2.859.482-3.84 1.447-.983.963-1.474 2.672-1.474 4.229v3.186c.07 3.538 1.806 5.28 5.209 5.228h7.497v3.492c-.055.252-.223.61-.717.706h-5.92c-.533-.104-.686-.512-.73-.762v-.862h-5.523v2.608h.024v1.54c-.008.956.225 1.677.677 2.164.45.484 1.11.727 1.983.73v.016h10.101c1.701 0 3.04-.446 4.012-1.34.974-.893 1.46-2.118 1.46-3.675v-3.822c0-1.804-.46-3.148-1.381-4.032M130.54 20.642v-5.146c-.09-.589-.296-1.063-.62-1.411-.439-.472-1.082-.712-1.923-.725h-9.295c-3.682.035-5.463 2.096-5.34 6.183v11.542c0 1.928.46 3.41 1.382 4.445.92 1.034 2.24 1.551 3.958 1.551h9.236v-.018c.871-.001 1.532-.244 1.982-.729.324-.348.53-.822.62-1.411v-5.095h-4.497v1.159a.867.867 0 0 1-.753.66h-5.472c-.83-.192-1.057-.858-1.116-1.247V20.098c.07-.457.365-1.3 1.6-1.304h4.861c.604.038.81.418.88.694v1.154h4.498zM281.768 19.667c.05-.426.303-1.332 1.547-1.369h4.634c1.565.083 1.5 1.584 1.5 1.584l.001 2.856c-.04.27-.21.765-.905.806h-5.885c-.634-.038-.832-.453-.892-.732v-3.145zm7.682 10.171h-.005v.203s.06 1.363-1.285 1.564h-5.075c-1.047-.133-1.27-.951-1.317-1.352v-2.045c.063-.292.274-.735.981-.737h9.422c.778-.035 1.384-.267 1.802-.716.403-.434.62-1.067.66-1.876v-5.788c0-1.786-.46-3.188-1.38-4.206-.922-1.017-2.19-1.525-3.803-1.525h-7.182c-1.842 0-3.258.47-4.248 1.406-.991.938-1.487 2.282-1.487 4.033v12.436c0 1.804.478 3.193 1.434 4.165.955.973 2.328 1.46 4.118 1.46h7.365c1.579 0 2.868-.513 3.867-1.54.86-.936 1.298-2.228 1.316-3.872v-1.625l-5.183.015z"/>
        </g>
        <g transform="translate(0 24.593)">
            <mask id="c" fill="#fff">
                <use xlink:href="#a"/>
            </mask>
            <path fill="url(#b)" d="M0 6.954C0 10.516 2.86 13.4 6.39 13.4s6.391-2.884 6.391-6.446c0-3.56-2.86-6.445-6.39-6.445S0 3.395 0 6.954" mask="url(#c)"/>
        </g>
        <g transform="translate(0 24.593)">
            <mask id="e" fill="#fff">
                <use xlink:href="#d"/>
            </mask>
            <path d="M0 6.916c0 3.56 2.86 6.446 6.39 6.446s6.391-2.885 6.391-6.446c0-3.56-2.86-6.445-6.39-6.445S0 3.357 0 6.916m2.26 0c0-2.296 1.854-4.164 4.13-4.164 2.278 0 4.13 1.868 4.13 4.164 0 2.297-1.852 4.165-4.13 4.165-2.276 0-4.13-1.868-4.13-4.165" mask="url(#e)"/>
        </g>
        <g transform="translate(51.282 3.041)">
            <mask id="h" fill="#fff">
                <use xlink:href="#f"/>
            </mask>
            <path fill="url(#g)" d="M.056 23.431c0 12.77 10.264 23.12 22.923 23.12 12.659 0 22.924-10.35 22.924-23.12 0-12.77-10.265-23.12-22.924-23.12C10.319.31.056 10.66.056 23.43" mask="url(#h)"/>
        </g>
        <g transform="translate(51.282 3.041)">
            <mask id="j" fill="#fff">
                <use xlink:href="#i"/>
            </mask>
            <path d="M.056 23.431c0 12.77 10.264 23.12 22.923 23.12 12.659 0 22.924-10.35 22.924-23.12 0-12.77-10.265-23.12-22.924-23.12C10.319.31.056 10.66.056 23.43m2.795 1.14c0-10.664 9.03-19.34 20.128-19.34s20.128 8.676 20.128 19.34c0 10.665-9.03 19.341-20.128 19.341-11.099 0-20.128-8.676-20.128-19.34" mask="url(#j)"/>
        </g>
        <path fill="#3A464E" d="M33.028 26.706c33.68-9.157 58.674-11.796 59.141-7.365.508 4.808-14.224 16.842-19.629 21.996-4.666 4.451-.812 9.976 4.82 6.804 6.832-3.85 34.692-19.695 34.692-19.695l-3.55-6.19c-2.327 1.379-14.658 8.492-14.1 7.775 2.01-2.578 5.576-7.912 4.97-11.817C97.698 7.419 80.12 5.41 15.255 24.174l2.151 6.779 15.622-4.247z"/>
        <g transform="translate(293.162 7.351)">
            <mask id="l" fill="#fff">
                <use xlink:href="#k"/>
            </mask>
            <path fill="#3A464E" d="M2.975 6.157c.749 0 1.344-.277 1.784-.83.361-.452.541-.949.541-1.488 0-.536-.18-1.029-.54-1.48-.44-.555-1.025-.831-1.754-.831-.728 0-1.313.276-1.753.83-.362.452-.541.947-.541 1.484 0 .63.222 1.174.668 1.63.448.456.98.685 1.595.685m-.004.688c-.804 0-1.495-.295-2.074-.887a2.918 2.918 0 0 1-.868-2.116c0-.83.292-1.537.874-2.123A2.855 2.855 0 0 1 3.006.84c.82 0 1.52.293 2.103.879.583.586.874 1.291.874 2.115 0 .84-.292 1.552-.876 2.136-.583.583-1.295.875-2.136.875" mask="url(#l)"/>
        </g>
        <path fill="#3A464E" d="M296.16 10.057h-.452v.983h.43c.246 0 .416-.042.507-.127.092-.084.138-.21.138-.375 0-.163-.045-.284-.133-.362-.089-.079-.252-.119-.49-.119zm1.414 2.736h-.608l-.663-1.2h-.595v1.2h-.586v-3.23h1.171c.735 0 1.103.312 1.103.933 0 .23-.048.418-.142.563a1.27 1.27 0 0 1-.403.378l.723 1.356z"/>
    </g>
</svg>
