<?xml version="1.0" encoding="UTF-8"?>
<svg width="525px" height="97px" viewBox="0 0 525 97" version="1.1" xmlns="http://www.w3.org/2000/svg" xmlns:xlink="http://www.w3.org/1999/xlink">
    <title>OSEnterprise-logo</title>
    <defs>
        <path d="M139.6512,71.7722 C143.3016,71.7722 146.718,71.117 149.9004,69.8066 C153.0828,68.4962 155.8323,66.7061 158.1489,64.4363 C160.4655,62.1665 162.3024,59.4755 163.6596,56.3633 C165.0168,53.2511 165.6954,49.94 165.6954,46.43 C165.6954,42.92 165.0168,39.6089 163.6596,36.4967 C162.3024,33.3845 160.4655,30.6935 158.1489,28.4237 C155.8323,26.1539 153.0828,24.3638 149.9004,23.0534 C146.718,21.743 143.3016,21.0878 139.6512,21.0878 C136.0476,21.0878 132.6546,21.743 129.4722,23.0534 C126.2898,24.3638 123.5403,26.1539 121.2237,28.4237 C118.9071,30.6935 117.0702,33.3845 115.713,36.4967 C114.3558,39.6089 113.6772,42.92 113.6772,46.43 C113.6772,49.94 114.3558,53.2511 115.713,56.3633 C117.0702,59.4755 118.9071,62.1665 121.2237,64.4363 C123.5403,66.7061 126.2898,68.4962 129.4722,69.8066 C132.6546,71.117 136.0476,71.7722 139.6512,71.7722 Z M139.6512,62.4356 C137.4516,62.4356 135.4041,62.0261 133.5087,61.2071 C131.6133,60.3881 129.9753,59.2649 128.5947,57.8375 C127.2141,56.4101 126.126,54.7136 125.3304,52.748 C124.5348,50.7824 124.137,48.6764 124.137,46.43 C124.137,44.1368 124.5348,42.0191 125.3304,40.0769 C126.126,38.1347 127.2141,36.4499 128.5947,35.0225 C129.9753,33.5951 131.6133,32.4719 133.5087,31.6529 C135.4041,30.8339 137.4516,30.4244 139.6512,30.4244 C141.8508,30.4244 143.91,30.8339 145.8288,31.6529 C147.7476,32.4719 149.3973,33.5951 150.7779,35.0225 C152.1585,36.4499 153.2466,38.1347 154.0422,40.0769 C154.8378,42.0191 155.2356,44.1368 155.2356,46.43 C155.2356,48.6764 154.8378,50.7824 154.0422,52.748 C153.2466,54.7136 152.1585,56.4101 150.7779,57.8375 C149.3973,59.2649 147.7476,60.3881 145.8288,61.2071 C143.91,62.0261 141.8508,62.4356 139.6512,62.4356 Z" id="path-1"></path>
        <path d="M183.517825,71.61425 C185.524375,71.61425 187.3876,71.348075 189.1075,70.815725 C190.8274,70.283375 192.3016,69.546275 193.5301,68.604425 C194.7586,67.662575 195.731163,66.5466875 196.447788,65.2567625 C197.164412,63.9668375 197.522725,62.5643 197.522725,61.04915 C197.522725,58.59215 196.673012,56.565125 194.973588,54.968075 C193.274163,53.371025 190.86835,52.347275 187.75615,51.896825 L187.75615,51.896825 L181.61365,50.97545 C180.05755,50.7707 178.941663,50.4328625 178.265988,49.9619375 C177.590313,49.4910125 177.252475,48.825575 177.252475,47.965625 C177.252475,47.023775 177.713163,46.2662 178.634538,45.6929 C179.555913,45.1196 180.774175,44.83295 182.289325,44.83295 C183.927325,44.83295 185.54485,45.0888875 187.1419,45.6007625 C188.73895,46.1126375 190.4179,46.88045 192.17875,47.9042 L192.17875,47.9042 L196.2328,42.4988 C194.22625,41.1884 192.117325,40.1953625 189.906025,39.5196875 C187.694725,38.8440125 185.422,38.506175 183.08785,38.506175 C179.0338,38.506175 175.79875,39.42755 173.3827,41.2703 C170.96665,43.11305 169.758625,45.57005 169.758625,48.6413 C169.758625,51.22115 170.587863,53.289125 172.246338,54.845225 C173.904813,56.401325 176.310625,57.425075 179.463775,57.916475 L179.463775,57.916475 L185.606275,58.83785 C186.998575,59.0426 188.012088,59.390675 188.646813,59.882075 C189.281538,60.373475 189.5989,61.028675 189.5989,61.847675 C189.5989,62.871425 189.035838,63.690425 187.909713,64.304675 C186.783588,64.918925 185.278675,65.22605 183.394975,65.22605 C181.716025,65.22605 180.037075,64.9291625 178.358125,64.3353875 C176.679175,63.7416125 174.89785,62.830475 173.01415,61.601975 L173.01415,61.601975 L168.83725,67.19165 C170.63905,68.6249 172.8094,69.7203125 175.3483,70.4778875 C177.8872,71.2354625 180.610375,71.61425 183.517825,71.61425 Z" id="path-2"></path>
        <polygon id="path-3" points="253.2 71 253.2 62.1548 225.3306 62.1548 225.3306 50.5016 243.5124 50.5016 243.5124 41.9372 225.3306 41.9372 225.3306 30.7052 252.9192 30.7052 252.9192 21.86 215.1516 21.86 215.1516 71"></polygon>
        <path d="M267.740175,71 L267.740175,48.825575 C268.477275,47.801825 269.408887,47.0135375 270.535012,46.4607125 C271.661137,45.9078875 272.92035,45.631475 274.31265,45.631475 C276.3192,45.631475 277.926488,46.245725 279.134512,47.474225 C280.342537,48.702725 280.94655,50.32025 280.94655,52.3268 L280.94655,52.3268 L280.94655,71 L289.361775,71 L289.361775,51.0983 C289.361775,47.37185 288.174225,44.321075 285.799125,41.945975 C283.424025,39.570875 280.393725,38.383325 276.708225,38.383325 C274.947375,38.383325 273.319612,38.6495 271.824937,39.18185 C270.330263,39.7142 268.968675,40.49225 267.740175,41.516 L267.740175,41.516 L267.740175,38.997575 L259.32495,38.997575 L259.32495,71 L267.740175,71 Z M309.69345,71.4914 C310.59435,71.4914 311.679525,71.3992625 312.948975,71.2149875 C314.218425,71.0307125 315.3036,70.79525 316.2045,70.5086 L316.2045,70.5086 L316.2045,63.629 C315.3855,63.91565 314.627925,64.1101625 313.931775,64.2125375 C313.235625,64.3149125 312.498525,64.3661 311.720475,64.3661 C310.082475,64.3661 308.935875,64.058975 308.280675,63.444725 C307.625475,62.830475 307.297875,61.765775 307.297875,60.250625 L307.297875,60.250625 L307.297875,46.06145 L316.388775,46.06145 L316.388775,38.997575 L307.297875,38.997575 L307.297875,28.923875 L298.88265,30.82805 L298.88265,38.997575 L292.310175,38.997575 L292.310175,46.06145 L298.88265,46.06145 L298.88265,61.970525 C298.88265,65.082725 299.793788,67.4475875 301.616062,69.0651125 C303.438337,70.6826375 306.1308,71.4914 309.69345,71.4914 Z M335.98335,71.61425 C338.52225,71.61425 340.825688,71.2457 342.893663,70.5086 C344.961637,69.7715 346.978425,68.604425 348.944025,67.007375 L348.944025,67.007375 L343.415775,61.970525 C342.555825,62.789525 341.5116,63.42425 340.2831,63.8747 C339.0546,64.32515 337.7442,64.550375 336.3519,64.550375 C334.1406,64.550375 332.21595,63.936125 330.57795,62.707625 C328.93995,61.479125 327.8343,59.8616 327.261,57.85505 L327.261,57.85505 L351.0939,57.85505 L351.0939,55.64375 C351.0939,53.18675 350.694637,50.9037875 349.896112,48.7948625 C349.097587,46.6859375 347.991937,44.8739 346.579162,43.35875 C345.166387,41.8436 343.487437,40.6458125 341.542312,39.7653875 C339.597187,38.8849625 337.4985,38.44475 335.24625,38.44475 C332.95305,38.44475 330.792937,38.874725 328.765913,39.734675 C326.738887,40.594625 324.988275,41.7719375 323.514075,43.2666125 C322.039875,44.7612875 320.883038,46.5221375 320.043563,48.5491625 C319.204087,50.5761875 318.78435,52.7363 318.78435,55.0295 C318.78435,57.36365 319.224562,59.5442375 320.104987,61.5712625 C320.985412,63.5982875 322.193437,65.3489 323.729062,66.8231 C325.264687,68.2973 327.086962,69.464375 329.195887,70.324325 C331.304812,71.184275 333.5673,71.61425 335.98335,71.61425 Z M342.86295,51.8354 L327.199575,51.8354 C327.731925,49.8698 328.69425,48.3034625 330.08655,47.1363875 C331.47885,45.9693125 333.137325,45.385775 335.061975,45.385775 C336.904725,45.385775 338.532488,45.9897875 339.945263,47.1978125 C341.358037,48.4058375 342.3306,49.9517 342.86295,51.8354 L342.86295,51.8354 Z M364.668825,71 L364.668825,50.299775 C365.446875,48.743675 366.521812,47.556125 367.893637,46.737125 C369.265462,45.918125 370.770375,45.508625 372.408375,45.508625 C373.186425,45.508625 373.944,45.5802875 374.6811,45.7236125 C375.4182,45.8669375 376.093875,46.081925 376.708125,46.368575 L376.708125,46.368575 L376.708125,38.997575 C376.298625,38.751875 375.817462,38.5778375 375.264637,38.4754625 C374.711812,38.3730875 374.0259,38.301425 373.2069,38.260475 C371.44605,38.260475 369.838762,38.6187875 368.385037,39.3354125 C366.931312,40.0520375 365.692575,41.1065 364.668825,42.4988 L364.668825,42.4988 L364.668825,38.997575 L356.2536,38.997575 L356.2536,71 L364.668825,71 Z M389.6688,83.837825 L389.6688,68.91155 C390.93825,69.73055 392.320312,70.3550375 393.814988,70.7850125 C395.309663,71.2149875 396.83505,71.429975 398.39115,71.429975 C400.68435,71.429975 402.844463,71.0102375 404.871488,70.1707625 C406.898512,69.3312875 408.649125,68.17445 410.123325,66.70025 C411.597525,65.22605 412.7646,63.485675 413.62455,61.479125 C414.4845,59.472575 414.914475,57.3227 414.914475,55.0295 C414.914475,52.7363 414.494737,50.586425 413.655262,48.579875 C412.815787,46.573325 411.65895,44.83295 410.18475,43.35875 C408.71055,41.88455 406.980412,40.717475 404.994338,39.857525 C403.008263,38.997575 400.8891,38.5676 398.63685,38.5676 C396.9579,38.5676 395.340375,38.8235375 393.784275,39.3354125 C392.228175,39.8472875 390.8154,40.6151 389.54595,41.63885 L389.54595,41.63885 L389.54595,38.997575 L381.253575,38.997575 L381.253575,83.837825 L389.6688,83.837825 Z M397.2855,64.304675 C395.77035,64.304675 394.347337,64.0385 393.016462,63.50615 C391.685587,62.9738 390.5697,62.257175 389.6688,61.356275 L389.6688,61.356275 L389.6688,48.76415 C390.61065,47.78135 391.736775,47.0340125 393.047175,46.5221375 C394.357575,46.0102625 395.77035,45.754325 397.2855,45.754325 C399.86535,45.754325 402.066412,46.6449875 403.888688,48.4263125 C405.710962,50.2076375 406.6221,52.4087 406.6221,55.0295 C406.6221,57.6503 405.7212,59.8513625 403.9194,61.6326875 C402.1176,63.4140125 399.9063,64.304675 397.2855,64.304675 Z M428.4894,71 L428.4894,50.299775 C429.26745,48.743675 430.342387,47.556125 431.714213,46.737125 C433.086037,45.918125 434.59095,45.508625 436.22895,45.508625 C437.007,45.508625 437.764575,45.5802875 438.501675,45.7236125 C439.238775,45.8669375 439.91445,46.081925 440.5287,46.368575 L440.5287,46.368575 L440.5287,38.997575 C440.1192,38.751875 439.638037,38.5778375 439.085213,38.4754625 C438.532388,38.3730875 437.846475,38.301425 437.027475,38.260475 C435.266625,38.260475 433.659337,38.6187875 432.205613,39.3354125 C430.751888,40.0520375 429.51315,41.1065 428.4894,42.4988 L428.4894,42.4988 L428.4894,38.997575 L420.074175,38.997575 L420.074175,71 L428.4894,71 Z M449.25105,35.189225 C450.56145,35.189225 451.687575,34.7183 452.629425,33.77645 C453.571275,32.8346 454.0422,31.708475 454.0422,30.398075 C454.0422,29.087675 453.571275,27.96155 452.629425,27.0197 C451.687575,26.07785 450.56145,25.606925 449.25105,25.606925 C447.94065,25.606925 446.814525,26.07785 445.872675,27.0197 C444.930825,27.96155 444.4599,29.087675 444.4599,30.398075 C444.4599,31.708475 444.930825,32.8346 445.872675,33.77645 C446.814525,34.7183 447.94065,35.189225 449.25105,35.189225 Z M453.489375,71 L453.489375,38.997575 L445.07415,38.997575 L445.07415,71 L453.489375,71 Z M472.039725,71.61425 C474.046275,71.61425 475.9095,71.348075 477.6294,70.815725 C479.3493,70.283375 480.8235,69.546275 482.052,68.604425 C483.2805,67.662575 484.253062,66.5466875 484.969687,65.2567625 C485.686312,63.9668375 486.044625,62.5643 486.044625,61.04915 C486.044625,58.59215 485.194912,56.565125 483.495487,54.968075 C481.796062,53.371025 479.39025,52.347275 476.27805,51.896825 L476.27805,51.896825 L470.13555,50.97545 C468.57945,50.7707 467.463562,50.4328625 466.787888,49.9619375 C466.112212,49.4910125 465.774375,48.825575 465.774375,47.965625 C465.774375,47.023775 466.235063,46.2662 467.156438,45.6929 C468.077813,45.1196 469.296075,44.83295 470.811225,44.83295 C472.449225,44.83295 474.06675,45.0888875 475.6638,45.6007625 C477.26085,46.1126375 478.9398,46.88045 480.70065,47.9042 L480.70065,47.9042 L484.7547,42.4988 C482.74815,41.1884 480.639225,40.1953625 478.427925,39.5196875 C476.216625,38.8440125 473.9439,38.506175 471.60975,38.506175 C467.5557,38.506175 464.32065,39.42755 461.9046,41.2703 C459.48855,43.11305 458.280525,45.57005 458.280525,48.6413 C458.280525,51.22115 459.109762,53.289125 460.768237,54.845225 C462.426713,56.401325 464.832525,57.425075 467.985675,57.916475 L467.985675,57.916475 L474.128175,58.83785 C475.520475,59.0426 476.533987,59.390675 477.168712,59.882075 C477.803437,60.373475 478.1208,61.028675 478.1208,61.847675 C478.1208,62.871425 477.557738,63.690425 476.431613,64.304675 C475.305488,64.918925 473.800575,65.22605 471.916875,65.22605 C470.237925,65.22605 468.558975,64.9291625 466.880025,64.3353875 C465.201075,63.7416125 463.41975,62.830475 461.53605,61.601975 L461.53605,61.601975 L457.35915,67.19165 C459.16095,68.6249 461.3313,69.7203125 463.8702,70.4778875 C466.4091,71.2354625 469.132275,71.61425 472.039725,71.61425 Z M506.25345,71.61425 C508.79235,71.61425 511.095788,71.2457 513.163763,70.5086 C515.231738,69.7715 517.248525,68.604425 519.214125,67.007375 L519.214125,67.007375 L513.685875,61.970525 C512.825925,62.789525 511.7817,63.42425 510.5532,63.8747 C509.3247,64.32515 508.0143,64.550375 506.622,64.550375 C504.4107,64.550375 502.48605,63.936125 500.84805,62.707625 C499.21005,61.479125 498.1044,59.8616 497.5311,57.85505 L497.5311,57.85505 L521.364,57.85505 L521.364,55.64375 C521.364,53.18675 520.964737,50.9037875 520.166213,48.7948625 C519.367688,46.6859375 518.262038,44.8739 516.849263,43.35875 C515.436487,41.8436 513.757538,40.6458125 511.812412,39.7653875 C509.867287,38.8849625 507.7686,38.44475 505.51635,38.44475 C503.22315,38.44475 501.063037,38.874725 499.036012,39.734675 C497.008987,40.594625 495.258375,41.7719375 493.784175,43.2666125 C492.309975,44.7612875 491.153138,46.5221375 490.313663,48.5491625 C489.474187,50.5761875 489.05445,52.7363 489.05445,55.0295 C489.05445,57.36365 489.494663,59.5442375 490.375088,61.5712625 C491.255513,63.5982875 492.463538,65.3489 493.999163,66.8231 C495.534787,68.2973 497.357062,69.464375 499.465987,70.324325 C501.574912,71.184275 503.8374,71.61425 506.25345,71.61425 Z M513.13305,51.8354 L497.469675,51.8354 C498.002025,49.8698 498.96435,48.3034625 500.35665,47.1363875 C501.74895,45.9693125 503.407425,45.385775 505.332075,45.385775 C507.174825,45.385775 508.802587,45.9897875 510.215362,47.1978125 C511.628137,48.4058375 512.6007,49.9517 513.13305,51.8354 L513.13305,51.8354 Z" id="path-4"></path>
    </defs>
    <g id="Page-1" stroke="none" stroke-width="1" fill="none" fill-rule="evenodd">
        <g id="OSEnterprise-logo" fill-rule="nonzero">
            <path d="M28.043,79.613 C28.043,85.16 24.913,87.934 18.583,87.934 C12.538,87.934 9.195,85.089 9.195,79.613 L9.195,64.819 C9.195,59.343 12.538,56.498 18.584,56.498 C24.914,56.498 28.044,59.271 28.044,64.819 L28.044,79.613 L28.043,79.613 Z M65.485,96.525 C69.6,94.422 71.835,90.779 71.835,86.156 C71.835,78.19 67.07,75.559 56.757,74.492 C51.565,73.994 49.857,73.354 49.857,71.292 C49.857,69.584 51.636,68.731 55.121,68.731 C57.966,68.731 60.028,69.655 61.309,71.434 C62.518,73.141 62.873,73.354 64.936,72.572 L69.132,70.793 C70.982,70.011 71.479,68.731 70.555,67.023 C67.852,61.974 62.589,59.413 54.765,59.413 C44.879,59.413 39.474,64.108 39.474,71.291 C39.474,75.63 41.109,78.617 44.026,80.253 C46.942,81.889 49.786,82.6 54.054,82.956 C59.957,83.525 61.594,84.094 61.594,86.37 C61.594,88.29 59.531,89.286 55.476,89.286 C51.991,89.286 49.858,88.361 49.004,86.583 C48.151,84.805 47.297,84.449 45.519,85.089 L41.181,86.512 C39.403,87.152 38.834,88.29 39.474,90.068 C40.642,92.956 42.659,95.113 45.512,96.525 L29.339,96.525 C35.989,93.609 39.639,87.635 39.639,79.399 L39.639,65.032 C39.639,53.084 31.957,45.9 18.586,45.9 C9.64,45.9 3.236,49.149 0.003,54.913 L0.003,20.32 C0.003,9.098 9.1,0 20.323,0 L76.206,0 C87.43,0 96.528,9.098 96.528,20.321 L96.528,76.204 C96.528,87.427 87.429,96.525 76.206,96.525 L65.485,96.525 Z" id="Shape" fill="#DDDA08"></path>
            <g id="O">
                <use fill="#000000" xlink:href="#path-1"></use>
                <use fill="#FFFFFF" xlink:href="#path-1"></use>
            </g>
            <g id="s">
                <use fill="#000000" xlink:href="#path-2"></use>
                <use fill="#FFFFFF" xlink:href="#path-2"></use>
            </g>
            <g id="E">
                <use fill="#000000" xlink:href="#path-3"></use>
                <use fill="#FFFFFF" xlink:href="#path-3"></use>
            </g>
            <g id="nterprise">
                <use fill="#000000" xlink:href="#path-4"></use>
                <use fill="#FFFFFF" xlink:href="#path-4"></use>
            </g>
        </g>
    </g>
</svg>