<?xml version="1.0" encoding="UTF-8"?>
<svg width="60px" height="61px" viewBox="0 0 60 61" version="1.1" xmlns="http://www.w3.org/2000/svg" xmlns:xlink="http://www.w3.org/1999/xlink">
    <title>Group 5</title>
    <g id="Page-1" stroke="none" stroke-width="1" fill="none" fill-rule="evenodd">
        <g id="Cosmobile---homepage-2" transform="translate(-344.000000, -1551.000000)" fill-rule="nonzero">
            <g id="Group-5" transform="translate(344.275879, 1551.361790)">
                <path d="M46.5165226,59.7756884 L12.3946251,59.7756884 C5.54887241,59.7756884 -2.52242671e-13,54.1452979 -2.52242671e-13,47.1998937 L-2.52242671e-13,12.5757947 C-2.52242671e-13,5.63039053 5.54887241,-4.26325641e-14 12.3946251,-4.26325641e-14 L46.5165226,-4.26325641e-14 C53.3613696,-4.26325641e-14 58.910242,5.63039053 58.910242,12.5757947 L58.910242,47.1998937 C58.910242,54.1452979 53.3613696,59.7756884 46.5165226,59.7756884" id="Fill-3-Copy-2" fill="#D0CF00"></path>
                <path d="M19.9606353,39.4771519 C19.9606353,40.6460529 20.2821385,41.675274 21.5735849,41.675274 C22.8641256,41.675274 23.18744,40.6460529 23.18744,39.4771519 L23.18744,20.2987203 C23.18744,19.1289003 22.8641256,18.1005982 21.5735849,18.1005982 C20.2821385,18.1005982 19.9606353,19.1289003 19.9606353,20.2987203 L19.9606353,39.4771519 Z M11.4783864,22.8239877 C11.4783864,17.5382024 13.0460538,12.4867487 21.5735849,12.4867487 C30.1029272,12.4867487 31.6705946,17.5382024 31.6705946,22.8239877 L31.6705946,36.9509656 C31.6705946,42.2376698 30.1029272,47.2882045 21.5735849,47.2882045 C13.0460538,47.2882045 11.4783864,42.2376698 11.4783864,36.9509656 L11.4783864,22.8239877 Z" id="Fill-10-Copy-2" fill="#FFFFFF"></path>
                <path d="M42.0798699,30.0363461 L42.0798699,26.3734219 C42.0798699,25.0914903 41.6831984,24.3590893 40.4922783,24.3590893 C39.1926812,24.3590893 38.9037812,25.0914903 38.9037812,26.3734219 C38.9037812,30.7678282 48.0725072,32.0515977 48.0725072,40.1098472 C48.0725072,45.0170261 45.4733128,47.2895829 40.455147,47.2895829 C36.6306182,47.2895829 32.9111439,45.9699745 32.9111439,41.4652945 L32.9111439,36.6297935 L38.4572993,36.6297935 L38.9037812,37.0001293 L38.9037812,41.1353924 C38.9037812,42.6737103 39.3719984,43.1129672 40.4922783,43.1129672 C41.4658442,43.1129672 42.0798699,42.6737103 42.0798699,41.1353924 C42.0798699,35.2375882 32.9111439,35.1291524 32.9111439,26.703324 C32.9111439,21.9790156 35.9794611,20.1843114 40.6000498,20.1843114 C44.6428385,20.1843114 48.0725072,21.5755977 48.0725072,25.9341651 L48.0725072,30.0363461 L42.0798699,30.0363461 Z" id="Fill-14-Copy-2" fill-opacity="0.7" fill="#FFFFFF"></path>
            </g>
        </g>
    </g>
</svg>