<?xml version="1.0" encoding="UTF-8"?>
<svg width="58px" height="51px" viewBox="0 0 58 51" version="1.1" xmlns="http://www.w3.org/2000/svg" xmlns:xlink="http://www.w3.org/1999/xlink">
    <title>Group 2 Copy 3</title>
    <g id="Page-1" stroke="none" stroke-width="1" fill="none" fill-rule="evenodd">
        <g id="Cosmobile---homepage-2" transform="translate(-768.000000, -1382.000000)" fill-rule="nonzero">
            <g id="Group-2-Copy-3" transform="translate(768.000000, 1382.600000)">
                <path d="M19.1174919,31.0239418 C19.1174919,32.1726413 19.4327503,33.1840749 20.6991119,33.1840749 C21.9645856,33.1840749 22.28162,32.1726413 22.28162,31.0239418 L22.28162,12.1769613 C22.28162,11.0273587 21.9645856,10.0168282 20.6991119,10.0168282 C19.4327503,10.0168282 19.1174919,11.0273587 19.1174919,12.1769613 L19.1174919,31.0239418 Z M10.8,14.6585857 C10.8,9.46415199 12.3372174,4.5 20.6991119,4.5 C29.0627826,4.5 30.6,9.46415199 30.6,14.6585857 L30.6,28.5414143 C30.6,33.7367511 29.0627826,38.7 20.6991119,38.7 C12.3372174,38.7 10.8,33.7367511 10.8,28.5414143 L10.8,14.6585857 Z" id="Fill-10" fill="#FFFFFF"></path>
                <path d="M41.6525656,22.0866456 L41.6525656,18.5595708 C41.6525656,17.3251831 41.2522669,16.6199451 40.050457,16.6199451 C38.7389762,16.6199451 38.4474344,17.3251831 38.4474344,18.5595708 C38.4474344,22.7909988 47.7,24.0271562 47.7,31.7865439 C47.7,36.511727 45.0770384,38.7 40.0129861,38.7 C36.1534855,38.7 32.4,37.4293328 32.4,33.0917209 L32.4,28.4355574 L37.99687,28.4355574 L38.4474344,28.7921583 L38.4474344,32.7740541 C38.4474344,34.2553194 38.9199331,34.6782852 40.050457,34.6782852 C41.0329252,34.6782852 41.6525656,34.2553194 41.6525656,32.7740541 C41.6525656,27.0949858 32.4,26.9905716 32.4,18.8772376 C32.4,14.3281428 35.4963742,12.6 40.1592139,12.6 C44.2389702,12.6 47.7,13.9396867 47.7,18.136605 L47.7,22.0866456 L41.6525656,22.0866456 Z" id="Fill-14" fill-opacity="0.7" fill="#FFFFFF"></path>
                <g id="Group-14" fill="#DDDB00">
                    <polygon id="Fill-1-Copy" points="5.60818254 19.3741935 11.2163651 19.3741935 11.2163651 13.8387097 5.60818254 13.8387097"></polygon>
                    <path d="M28.7077395,27.6191278 L22.8772814,27.6191278 L22.8772814,33.3876907 L28.7077395,33.3876907 L28.7077395,27.6191278 Z M41.7820999,6.81739257 L41.7820999,5.43118941 C41.7820999,4.36418008 40.9047044,3.49609875 39.8262462,3.49609875 L39.8262462,3.49609875 L26.0698989,3.49609875 C24.9914408,3.49609875 24.1140452,4.36418008 24.1140452,5.43118941 L24.1140452,5.43118941 L24.1140452,6.81739257 L41.7820999,6.81739257 Z M47.6673291,6.81734013 C51.5401665,6.81734013 54.67978,9.92379869 54.67978,13.7553481 L54.67978,13.7553481 L57.4838712,42.8813469 C57.4838712,46.7128964 54.3442579,49.8193548 50.4714203,49.8193548 L50.4714203,49.8193548 L15.4247249,49.8193548 C11.5518873,49.8193548 8.41227399,46.7128964 8.41227399,42.8813469 L8.41227399,42.8813469 L11.2163652,19.5781005 L17.0468233,19.5781005 L17.0468233,25.3466635 L22.8772814,25.3466635 L22.8772814,19.5781005 L28.7077395,19.5781005 L28.7077395,13.8094852 L22.8772814,13.8094852 L22.8772814,19.5780482 L17.0468233,19.5780482 L17.0468233,13.8094852 L11.2163652,13.8094852 L11.2163652,13.7554705 C11.2163652,9.92374625 14.3559786,6.8172877 18.2288162,6.8172877 L18.2288162,6.8172877 L20.5804343,6.8172877 L20.5804343,5.43118941 C20.5804343,2.43643122 23.0430077,1.02318154e-13 26.0698989,1.02318154e-13 L26.0698989,1.02318154e-13 L39.8262462,1.02318154e-13 C42.8531374,1.02318154e-13 45.3157108,2.43643122 45.3157108,5.43118941 L45.3157108,5.43118941 L45.3157108,6.81739257 L47.6673291,6.81734013 Z" id="Combined-Shape"></path>
                    <polygon id="Fill-1-Copy-3" points="7.01022818 5.53548387 12.6184107 5.53548387 12.6184107 9.78572062e-14 7.01022818 9.78572062e-14"></polygon>
                    <polygon id="Fill-1-Copy-2" points="-9.14752145e-14 13.8387097 5.60818254 13.8387097 5.60818254 8.3032258 -9.14752145e-14 8.3032258"></polygon>
                </g>
            </g>
        </g>
    </g>
</svg>