<?xml version="1.0" encoding="UTF-8"?>
<svg width="57px" height="59px" viewBox="0 0 57 59" version="1.1" xmlns="http://www.w3.org/2000/svg" xmlns:xlink="http://www.w3.org/1999/xlink">
    <title>Business Travels</title>
    <g id="Page-1" stroke="none" stroke-width="1" fill="none" fill-rule="evenodd">
        <g id="Cosmobile---homepage-2" transform="translate(-768.000000, -1721.000000)" fill-rule="nonzero">
            <g id="Business-Travels" transform="translate(768.000000, 1721.000000)">
                <path d="M44.1452868,59 L12.8547127,59 C5.75490789,59 0,52.9845951 0,45.5654443 L0,13.4345558 C0,6.014497 5.75490789,0 12.8547127,0 L44.1452868,0 C51.2450917,0 57,6.014497 57,13.4345558 L57,45.5654443 C57,52.9845951 51.2450917,59 44.1452868,59" id="Fill-22" fill="#DCDA01"></path>
                <path d="M44.1452868,59 L12.8547127,59 C5.75490789,59 0,52.9845951 0,45.5654443 L0,13.4345558 C0,6.014497 5.75490789,0 12.8547127,0 L44.1452868,0 C51.2450917,0 57,6.014497 57,13.4345558 L57,45.5654443 C57,52.9845951 51.2450917,59 44.1452868,59" id="Fill-23" fill="#DDDB00"></path>
                <path d="M41.0012326,38.8306031 L35.0010575,36.7945305 L35.0010575,18.9967767 L41.0012326,22.0486221 L41.0012326,38.8306031 Z M17.0005324,20.1700759 L23.0007074,22.2043377 L23.0007074,40.0011862 L17.0005324,36.9484355 L17.0005324,20.1700759 Z M26.0003501,22.0486221 L32.0005251,18.9967767 L32.0005251,36.9484355 L26.0003501,40.0011862 L26.0003501,22.0486221 Z M43.1715465,19.7400472 L34.1717288,15.1609212 C33.7499458,14.9463596 33.2516367,14.9463596 32.8289639,15.1609212 L24.3835151,19.4575863 L15.9745496,16.6049122 C15.5153934,16.4491965 15.0144149,16.5270544 14.6228863,16.8158525 C14.2313578,17.1037453 14,17.5636497 14,18.0534297 L14,37.8954039 C14,38.4730002 14.3212313,39.0017091 14.8293287,39.2597264 L23.8300361,43.837947 C24.0418174,43.9447752 24.2705058,44 24.5009736,44 C24.729662,44 24.9610197,43.9465859 25.1710214,43.837947 L33.6164702,39.5430926 L42.0254356,42.3957668 C42.4837021,42.5478612 42.9855705,42.4709086 43.377099,42.1839211 C43.7686276,41.8969336 44,41.436124 44,40.9472493 L44,21.1043698 C44.001765,20.525868 43.6805336,19.9980645 43.1715465,19.7400472 Z" id="Fill-24" fill="#FFFFFF"></path>
            </g>
        </g>
    </g>
</svg>