<?xml version="1.0" encoding="UTF-8"?>
<svg width="59px" height="60px" viewBox="0 0 59 60" version="1.1" xmlns="http://www.w3.org/2000/svg" xmlns:xlink="http://www.w3.org/1999/xlink">
    <title>Group 13 Copy 3</title>
    <g id="Page-1" stroke="none" stroke-width="1" fill="none" fill-rule="evenodd">
        <g id="Cosmobile---homepage-2" transform="translate(-768.000000, -1549.000000)" fill-rule="nonzero">
            <g id="Group-13-Copy-3" transform="translate(768.000000, 1549.000000)">
                <g id="Group" transform="translate(0.000000, 0.000000)">
                    <g id="Group-5" transform="translate(0.606122, 15.646278)" fill="#DEDC00">
                        <path d="M6.56915511,6.2680192 C9.16578367,5.86453181 11.6090633,5.47590036 14.2372102,5.37369148 C16.5568408,5.30119448 18.8776836,5.22869747 21.3670286,5.29168668 C26.6663572,5.53888955 31.4432081,6.74994597 36.7431428,6.9977431 L40.4768572,7.09222689 C42.4903959,7.04944178 44.6409184,6.84145858 46.6538511,6.79867347 C48.1897653,6.65011405 49.7123449,6.35061825 51.2488653,6.20146459 C53.1478469,5.88711285 55.0062184,5.46460984 56.8427694,4.98030612 C56.5257673,4.00753902 56.1578511,3.05854142 55.7432633,2.13687875 C49.4092836,3.66169268 43.0759102,4.27732293 36.5303939,3.84887755 C36.3309796,3.41211285 36.3340102,2.93018608 36.4425061,2.46311525 C33.9380081,2.24978391 31.4341164,2.03526411 28.7611164,1.68585234 C22.9077919,0.579381753 17.008402,0.541944777 11.1696245,1.10706483 C11.2926673,0.790930373 11.2478143,0.339309724 11.2478143,0.339309724 C8.17962245,0.404675871 5.15446531,0.897893157 2.16991836,1.59968788 C1.25649184,3.51432173 0.553389796,5.53829532 0.0872816327,7.64070828 C0.664310204,7.49036615 1.25043061,7.34002401 1.8523102,7.1807683 C3.52642041,6.86701081 5.04839388,6.56751501 6.56915511,6.2680192" id="Fill-3"></path>
                    </g>
                    <g id="Group-8" transform="translate(0.000000, 0.196098)" fill="#38464E">
                        <path d="M51.1049112,9.73527731 C50.1945153,8.76369869 49.2162336,7.85570348 48.1815827,7.01604562 C44.0532827,7.5674982 39.8783112,7.75527731 35.6936419,7.5484826 C35.4796806,6.96078151 35.8948745,6.46459303 35.8494153,6.01237815 C30.4112847,5.93037334 20.3326806,4.11319448 14.4454133,4.42100961 C11.9724336,5.85847059 9.74311531,7.63821248 7.81746428,9.68654982 C18.4573378,6.89779232 40.3038092,12.3184286 51.1049112,9.73527731 M40.3977581,54.2490288 C40.5214072,53.9328943 40.4911011,53.6310216 40.6141439,53.3154814 C37.8035541,53.1306735 34.9765989,52.7967119 32.1496439,52.4615618 C26.4660336,51.4905774 20.8733419,51.4240228 15.3418684,51.959431 C15.4649112,51.6432965 15.419452,51.1916759 15.419452,51.1916759 C13.8962664,51.2623902 12.379748,51.4002533 10.8729276,51.6022941 C16.6820051,56.2367539 24.2845989,58.7123481 32.3278439,57.9327083 C36.1755092,57.5601212 39.7770888,56.4756375 43.0101459,54.8260336 C42.1464214,54.8355414 41.2845153,54.8450493 40.4583704,54.85218 C40.4583704,54.85218 40.4129112,54.3993709 40.3977581,54.2490288 M44.6727398,4.56956903 C39.4212949,1.44566146 33.1297439,-0.0975738295 26.5454358,0.539448979 C23.2378255,0.859743097 20.1132642,1.70653181 17.2487296,2.98473709 C24.4555255,2.50459303 37.5114031,5.26245018 44.6727398,4.56956903 M15.1733664,14.8599832 C22.1183173,14.4909616 28.7850581,15.9753674 35.9742766,16.4965138 C42.5361581,16.8762317 48.8725622,16.3954934 55.0265234,15.0085426 C54.4694969,14.0452833 53.8573133,13.119461 53.1948214,12.2322641 C47.6506194,13.3102113 41.9457949,13.7041909 36.2864296,13.4237107 C36.0712561,12.8360096 36.48645,12.3392269 36.4415969,11.8876062 C32.4975581,10.9897131 17.2778234,9.67941896 11.1693214,10.5315558 C11.2917582,10.2154214 11.2620582,9.91414286 11.2620582,9.91414286 C9.96253164,9.90879472 8.67270306,9.99495918 7.39075408,10.149461 C5.67118469,12.0605294 4.20861122,14.1908715 3.05273572,16.487006 C3.41216633,16.4002473 3.77402142,16.3152713 4.14072551,16.2320781 C7.78230919,15.4227263 11.4699582,15.0655894 15.1733664,14.8599832 M38.6672786,37.0749652 C38.6072725,36.4730024 38.7151622,36.0065258 38.8236581,35.5388608 C34.4589704,35.5204393 20.1593296,32.8980684 13.5507766,34.182216 C13.6744255,33.8666759 13.6289664,33.414461 13.6289664,33.414461 C9.25336836,33.5071621 4.95717245,34.3925762 0.759168367,35.6600852 C1.17618061,37.4576542 1.76290714,39.1856975 2.4987398,40.8293589 C3.30912551,40.6279123 4.11345,40.4312197 5.00081327,40.1822341 C6.67552959,39.8684766 8.19689694,39.5695751 9.71947653,39.269485 C25.3447072,35.5204393 37.9520541,43.3328824 57.2261419,38.7002053 C57.6255766,37.5741248 57.9553072,36.4189268 58.2116969,35.2393649 C51.8183173,36.7481345 43.8890234,37.6573181 38.6672786,37.0749652 M39.2594602,42.9501933 C39.0454989,42.3630864 39.4600867,41.8663037 39.4158398,41.414683 C32.9569989,41.3825942 22.8747581,38.9735547 14.1429581,40.0586326 C14.2666072,39.7419039 14.2205419,39.289689 14.2205419,39.289689 C10.3219622,39.5695751 6.46217449,40.2303674 2.67815204,41.2251212 C3.48611327,42.9602953 4.46378878,44.5974202 5.5875398,46.1198571 C6.09062142,45.9962557 6.5973398,45.8714657 7.11436225,45.7585607 C29.7196989,40.8293589 38.6836439,49.3685547 53.8858011,45.2683145 C54.6495153,44.1499592 55.3344336,42.9787167 55.9351011,41.7605294 C50.4599969,42.7766759 42.476152,43.6567419 39.2594602,42.9501933 M39.8516419,48.8260156 C39.6522275,48.3892509 39.9146786,47.9073241 40.0225684,47.4396591 C37.0422642,47.1199592 34.0619602,46.8002593 30.9131541,46.344479 C25.3974398,45.5095751 20.1132642,45.4127143 14.7496867,46.0842029 C14.8739419,45.7680684 14.8278766,45.3158535 14.8278766,45.3158535 C11.8118112,45.379437 8.83635612,45.8577983 5.90151122,46.5405774 C7.20043164,48.2347491 8.68421939,49.7797671 10.3183255,51.1488908 C15.1103296,50.3264657 20.0017378,50.0239988 24.9464847,50.2688247 C29.9397214,50.5463337 34.5329173,51.4697791 39.5407011,51.8982245 C42.2761316,52.0568859 44.9697398,52.0533205 47.6294051,51.9000072 C48.9731786,50.8606855 50.2181541,49.7102413 51.3540275,48.464719 C47.5415173,48.8955414 41.6984969,49.264563 39.8516419,48.8260156 M37.9465989,28.314713 C45.0745989,28.6504574 52.0050031,27.8951813 58.6875031,26.1802113 C58.5747642,25.1426723 58.4068684,24.1247431 58.1886642,23.1276122 C51.0139928,25.067204 41.8591194,25.5449712 37.5738336,25.3126242 C37.6968766,24.9970841 37.5217072,24.096814 37.64475,23.7800852 C36.0627704,23.477024 22.2553011,20.9913277 12.3718684,22.4246291 C12.4955173,22.1084946 12.449452,21.6562797 12.449452,21.6562797 C8.43631531,21.8422761 4.47045612,22.4983145 0.593090816,23.5721021 C0.210021428,25.4469219 0.0160622449,27.3817599 0.026648536,29.3540348 C0.773715306,29.1472401 1.53015612,28.9440108 2.29993164,28.7229543 C16.7886827,23.4282965 32.9527561,28.0377983 37.9465989,28.314713 M58.8487316,29.0640468 C58.8560051,30.1431825 58.8056969,31.2104333 58.6935642,32.2628284 C52.4092867,33.8738067 45.9583255,34.6195751 39.317648,34.274323 C33.2333908,33.9504634 27.6722173,32.6639388 21.6037194,32.4904213 C18.3464173,32.5017119 15.2436766,32.4981465 12.1851827,32.946796 C10.3565112,33.2754093 8.51208061,33.4542749 6.68401531,33.7828884 C4.57955816,34.2505534 2.70421531,34.6962317 0.670674489,35.2560036 C0.445196939,34.2154934 0.274270408,33.1529964 0.165168367,32.0708895 C0.0887969388,31.304323 0.0427316327,30.5431045 0.0269724489,29.7872341 C4.27104184,28.5161596 8.62542551,27.7436506 13.0373908,27.5392329 C13.0373908,27.5392329 13.0834561,27.992042 12.9598072,28.3075822 C20.6127092,27.2629123 27.893452,28.6873001 35.8821459,29.4354453 L38.2314766,29.6636326 C38.1241928,30.1307035 38.0156969,30.59718 38.0769153,31.2003314 C43.52535,31.8385426 52.0698581,30.7867419 58.8487316,29.0640468" id="Fill-6"></path>
                    </g>
                </g>
            </g>
        </g>
    </g>
</svg>