<?xml version="1.0" encoding="UTF-8"?>
<svg width="58px" height="58px" viewBox="0 0 58 58" version="1.1" xmlns="http://www.w3.org/2000/svg" xmlns:xlink="http://www.w3.org/1999/xlink">
    <title>Group 22</title>
    <g id="Page-1" stroke="none" stroke-width="1" fill="none" fill-rule="evenodd">
        <g id="Cosmobile---homepage-2" transform="translate(-1243.000000, -1368.000000)" fill-rule="nonzero">
            <g id="Group-22" transform="translate(1243.000000, 1368.000000)">
                <path d="M45.7974233,58 L12.2025768,58 C5.46311525,58 0,52.5368848 0,45.7974233 L0,12.2025768 C0,5.46311525 5.46311525,0 12.2025768,0 L45.7974233,0 C52.5368848,0 58,5.46311525 58,12.2025768 L58,45.7974233 C58,52.5368848 52.5368848,58 45.7974233,58" id="Fill-30" fill="#D2D300"></path>
                <path d="M37.2418842,26.9956853 C36.8230415,27.9455601 36.2497986,28.780376 35.525141,29.5043947 C34.7987773,30.1751452 33.9615185,30.7180525 33.0142174,31.1360997 C32.0639306,31.5549992 31.0603289,31.7638097 30,31.7638097 C28.9379651,31.7638097 27.9343633,31.5549992 26.9857827,31.1360997 C26.0367755,30.7180525 25.1995167,30.1751452 24.474859,29.5043947 C23.7484953,28.780376 23.1901806,27.9455601 22.7999147,26.9956853 C22.4092223,26.047515 22.2130231,25.0447983 22.2130231,23.9841262 C22.2130231,22.8697598 22.4092223,21.8389176 22.7999147,20.8890428 C23.1901806,19.9412987 23.7484953,19.1060565 24.474859,18.3807596 C25.1995167,17.7112875 26.0367755,17.1671017 26.9857827,16.7486284 C27.9343633,16.330155 28.9379651,16.1209183 30,16.1209183 C31.0603289,16.1209183 32.0639306,16.330155 33.0142174,16.7486284 C33.9615185,17.1671017 34.7987773,17.7112875 35.525141,18.3807596 C36.2497986,19.1060565 36.8230415,19.9412987 37.2418842,20.8890428 C37.6603005,21.8389176 37.8701483,22.8697598 37.8701483,23.9841262 C37.8701483,25.0447983 37.6603005,26.047515 37.2418842,26.9956853 M45.4886499,26.9125872 C45.2079996,26.5226655 44.9853562,26.0756406 44.8194398,25.5744953 C44.6513909,25.0712193 44.5665135,24.5419486 44.5665135,23.9841262 C44.5665135,23.4275822 44.6513909,22.8966068 44.8194398,22.3950354 C44.9853562,21.8938901 45.2079996,21.4204443 45.4886499,20.9721408 C45.7663144,20.5272465 46.1288564,20.1241145 46.5775556,19.7601875 C47.0228425,19.3983914 47.4979859,19.0498056 48,18.7140042 C47.8869722,18.3807596 47.7756505,18.0602994 47.6656083,17.7530496 C47.5525804,17.4475044 47.4416852,17.1538912 47.329937,16.874767 C47.2173357,16.5956427 47.0923653,16.3037341 46.9528932,15.9964843 C46.8134211,15.6892345 46.6607269,15.3973259 46.492678,15.1182017 C45.9343633,15.2843978 45.3909767,15.3555638 44.8608123,15.3274383 C44.3289417,15.2993128 43.814132,15.2012997 43.3121179,15.033399 C42.8634188,14.867629 42.4181318,14.6298407 41.9728449,14.3230171 C41.5241458,14.0174719 41.105303,13.6688862 40.7163168,13.2768337 C40.3243448,12.8886166 40.0053078,12.4701433 39.7528079,12.0235444 C39.5015876,11.5769456 39.2925927,11.1022213 39.1245438,10.6006499 C39.0132221,10.1557556 38.9718497,9.66739466 39,9.13599319 C39.0281504,8.608427 39.0963936,8.03739413 39.2094214,7.42289458 C38.9300507,7.31167102 38.6511066,7.18553241 38.3717359,7.04618335 C38.0927918,6.90640814 37.8134211,6.75214404 37.5344771,6.5859479 C37.2000853,6.47472434 36.8776362,6.36350077 36.5722477,6.25057263 C36.2647268,6.13977521 35.972134,6.05667714 35.6931898,6 C35.3575186,6.50157141 34.9817544,6.96138071 34.5633383,7.37985404 C34.144069,7.79832738 33.6838538,8.17503862 33.1805602,8.51041389 C32.7335671,8.78911203 32.2315529,9.01155916 31.6749443,9.17945987 C31.1149234,9.345656 30.5566086,9.43003249 30,9.43003249 C29.4416852,9.43003249 28.8833704,9.345656 28.3250556,9.17945987 C27.7667409,9.01155916 27.2647267,8.78911203 26.8177338,8.51041389 C26.3157196,8.17503862 25.855931,7.79832738 25.4370883,7.37985404 C25.0182456,6.96138071 24.6412019,6.50157141 24.3068101,6 C24.0261599,6.05667714 23.7335671,6.13977521 23.4277522,6.25057263 C23.1206578,6.36350077 22.7999147,6.47472434 22.4642434,6.5859479 C22.1848728,6.75214404 21.9055021,6.90640814 21.6282641,7.04618335 C21.3471873,7.18553241 21.0695228,7.31167102 20.7905786,7.42289458 C20.9019004,8.03739413 20.9718497,8.608427 21,9.13599319 C21.0264442,9.66739466 20.9850718,10.1557556 20.8737501,10.6006499 C20.7061277,11.1022213 20.4984124,11.5769456 20.245486,12.0235444 C19.9946922,12.4701433 19.6743756,12.8886166 19.2836832,13.2768337 C18.8929909,13.6688862 18.4741481,14.0174719 18.0271551,14.3230171 C17.5801621,14.6298407 17.1348751,14.867629 16.6878821,15.033399 C16.1862945,15.2012997 15.6693522,15.2993128 15.1391877,15.3274383 C14.6077437,15.3555638 14.0639306,15.2843978 13.5073219,15.1182017 C13.339273,15.3973259 13.1848728,15.6892345 13.0471068,15.9964843 C12.9059286,16.3037341 12.7809582,16.5956427 12.670063,16.874767 C12.5570352,17.1538912 12.4457135,17.4475044 12.3343917,17.7530496 C12.2209374,18.0602994 12.1117483,18.3807596 12,18.7140042 C12.5020141,19.0498056 12.9754514,19.3983914 13.4224444,19.7601875 C13.869864,20.1241145 14.2319795,20.5272465 14.5113502,20.9721408 C14.7902943,21.4204443 15.0129378,21.8938901 15.1805602,22.3950354 C15.3486091,22.8966068 15.4317805,23.4275822 15.4317805,23.9841262 C15.4317805,24.5419486 15.3486091,25.0865605 15.1805602,25.6158312 C15.0129378,26.1455282 14.7902943,26.6620146 14.5113502,27.163586 C14.2319795,27.6647312 13.869864,28.1245406 13.4224444,28.5430139 C12.9754514,28.9614872 12.5020141,29.310073 12,29.5887711 C12.1117483,29.922868 12.2209374,30.2450327 12.3343917,30.5501518 C12.4457135,30.8574016 12.5570352,31.1510148 12.670063,31.4284345 C12.7809582,31.7638097 12.9059286,32.0710595 13.0471068,32.3501837 C13.1848728,32.6288819 13.339273,32.9080061 13.5073219,33.1849997 C14.0639306,33.0188036 14.6090233,32.9693709 15.1391877,32.9344271 C17.55713,32.7767539 19.0691436,34.9347468 19.2836832,35.3152933 C22.6054215,41.1492036 24.5891663,45.9769882 30,54 C35.3622104,46.047302 37.5344771,41.1492036 40.6416757,35.4580514 C40.8459788,35.0826187 42.5260415,32.5508976 44.8608123,32.5572897 C45.3909767,32.5606989 45.9343633,32.6007564 46.492678,32.7665264 C46.6607269,32.4895328 46.8134211,32.1959197 46.9528932,31.8886699 C47.0923653,31.5826985 47.2173357,31.29079 47.329937,31.0099611 C47.4416852,30.7329676 47.5525804,30.4393544 47.6656083,30.1316785 C47.7756505,29.8265594 47.8869722,29.5043947 48,29.1707239 C47.4979859,28.8915996 47.0228425,28.557929 46.5775556,28.1663027 C46.1288564,27.7776594 45.7663144,27.3591861 45.4886499,26.9125872" id="Fill-1" fill="#FFFFFF"></path>
            </g>
        </g>
    </g>
</svg>