<?xml version="1.0" encoding="UTF-8"?>
<svg width="59px" height="59px" viewBox="0 0 59 59" version="1.1" xmlns="http://www.w3.org/2000/svg" xmlns:xlink="http://www.w3.org/1999/xlink">
    <title>Group 3 Copy 3</title>
    <g id="Page-1" stroke="none" stroke-width="1" fill="none" fill-rule="evenodd">
        <g id="Cosmobile---homepage-2" transform="translate(-1243.000000, -1547.000000)" fill-rule="nonzero">
            <g id="Group-3-Copy-3" transform="translate(1243.000000, 1547.000000)">
                <g id="Group-Copy-2" fill="#DDDB00">
                    <g id="Group-9" transform="translate(0.000000, 0.689000)">
                        <g id="Group-6">
                            <path d="M46.61406,57.52143 L12.42126,57.52143 C5.73426,57.52143 0.31266,52.2011134 0.31266,45.6370633 L0.31266,12.0783467 C0.31266,5.51518 5.73426,0.19398 12.42126,0.19398 L46.61406,0.19398 C53.30196,0.19398 58.72266,5.51518 58.72266,12.0783467 L58.72266,45.6370633 C58.72266,52.2011134 53.30196,57.52143 46.61406,57.52143" id="Fill-4"></path>
                        </g>
                    </g>
                </g>
                <path d="M39.7559643,24.7757797 C39.3282723,26.7542078 38.7637187,30.8236254 37.8056884,34.1779484 C36.2949484,33.4588812 34.2762417,32.2855965 32.9892175,31.7585453 C33.0234329,30.4846177 33.0852837,28.6240476 33.122131,27.2269649 L33.1510825,26.1371078 L32.2825386,25.4882257 C25.9263761,20.7500624 22.7035517,15.8251799 21.3402009,13.1422512 C34.0577897,15.0928702 40.4192161,21.6982247 39.7559643,24.7757797 M38.0280883,15.1749736 C32.2206877,11.0684771 24.5485496,9.68066404 19.1333097,9.23836484 L16.2,9 C16.2,9 18.2884534,27.1991556 18.8372152,31.677766 C19.1333097,34.0918723 20.0637045,36.7138855 28.6149144,46.3928222 L32.7523419,50.4 C32.7523419,50.4 32.7128626,41.3434604 32.8273525,36.3285289 C35.9725343,37.3468766 39.8415028,40.9395643 39.8415028,40.9395643 L40.8403283,37.7282603 C41.3759304,36.004088 44.1,25.6815661 44.1,24.1547069 C44.1,21.2651953 41.773355,17.8247961 38.0280883,15.1749736" id="Fill-21-Copy-2" fill="#FFFFFF"></path>
            </g>
        </g>
    </g>
</svg>