<?xml version="1.0" encoding="UTF-8"?>
<svg width="60px" height="60px" viewBox="0 0 60 60" version="1.1" xmlns="http://www.w3.org/2000/svg" xmlns:xlink="http://www.w3.org/1999/xlink">
    <title>jc copy 4</title>
    <defs>
        <polygon id="path-1" points="0.398829716 0.0495491559 58.300122 0.0495491559 58.300122 58.1487658 0.398829716 58.1487658"></polygon>
        <polygon id="path-3" points="0.398829716 0.0495491559 58.300122 0.0495491559 58.300122 58.1487658 0.398829716 58.1487658"></polygon>
    </defs>
    <g id="Page-1" stroke="none" stroke-width="1" fill="none" fill-rule="evenodd">
        <g id="Cosmobile---homepage-2" transform="translate(-343.000000, -1724.000000)">
            <g id="jc-copy-4" transform="translate(343.000000, 1724.000000)">
                <g id="Group-13" transform="translate(0.144291, 0.000000)">
                    <g id="Group-25" transform="translate(0.000000, 0.835257)">
                        <g id="Fill-23-Clipped">
                            <mask id="mask-2" fill="white">
                                <use xlink:href="#path-1"></use>
                            </mask>
                            <g id="path-1"></g>
                            <path d="M46.1183123,58.1487658 L12.5806394,58.1487658 C5.85264753,58.1487658 0.398829716,52.6762385 0.398829716,45.925166 L0.398829716,12.2724411 C0.398829716,5.52136861 5.85264753,0.0488413109 12.5806394,0.0488413109 L46.1183123,0.0488413109 C52.8463042,0.0488413109 58.300122,5.52136861 58.300122,12.2724411 L58.300122,45.925166 C58.300122,52.6762385 52.8463042,58.1487658 46.1183123,58.1487658" id="Fill-23" fill="#D0CF00" fill-rule="nonzero" mask="url(#mask-2)"></path>
                        </g>
                    </g>
                    <g id="Group-32" transform="translate(0.000000, 0.835257)">
                        <g id="Fill-30-Clipped">
                            <mask id="mask-4" fill="white">
                                <use xlink:href="#path-3"></use>
                            </mask>
                            <g id="path-3"></g>
                            <path d="M46.1183123,58.1487658 L12.5806394,58.1487658 C5.85264753,58.1487658 0.398829716,52.6762385 0.398829716,45.925166 L0.398829716,12.2724411 C0.398829716,5.52136861 5.85264753,0.0488413109 12.5806394,0.0488413109 L46.1183123,0.0488413109 C52.8463042,0.0488413109 58.300122,5.52136861 58.300122,12.2724411 L58.300122,45.925166 C58.300122,52.6762385 52.8463042,58.1487658 46.1183123,58.1487658" id="Fill-30" fill="#D2D300" fill-rule="nonzero" mask="url(#mask-4)"></path>
                        </g>
                    </g>
                    <path d="M16.7426475,43.5875962 C15.0319916,42.085195 16.365245,37.7346021 15.5848685,38.3955524 C10.1319325,43.008048 10.7738694,49.1769178 10.7738694,49.1769178 C10.7738694,49.1769178 16.0125326,50.5713727 21.6788597,44.4025027 C22.242318,43.789332 18.4533034,45.0899973 16.7426475,43.5875962" id="Fill-33" fill="#FFFFFF" fill-rule="nonzero"></path>
                    <path d="M42.0021568,23.0277932 C40.5957155,24.4390593 38.3145471,24.4390593 36.9072241,23.0277932 C35.5007828,21.6165271 35.5007828,19.3275331 36.9072241,17.9153822 C38.3145471,16.5041159 40.5957155,16.5041159 42.0021568,17.9153822 C43.4085982,19.3275331 43.4085982,21.6165271 42.0021568,23.0277932 M37.6205852,31.0370604 L28.925339,22.3119849 C31.2356063,19.880537 34.4056103,20.6078479 34.4056103,20.6078479 C34.4056103,20.6078479 34.4161916,22.6190127 35.8967026,24.1267227 C37.3772136,25.6353176 39.3188961,25.5388737 39.3188961,25.5388737 C39.3188961,25.5388737 40.0322572,28.617115 37.6205852,31.0370604 M31.0398508,16.4572212 C24.2977504,20.6405857 23.0985277,24.0541686 23.0985277,24.0541686 C23.0985277,24.0541686 19.0590873,23.6445033 17.6693997,24.1806959 C16.2797123,24.7168886 14.248088,27.1846135 13.5003374,28.0428757 C12.751705,28.9011378 12.8584006,29.5443921 13.5003374,29.6523384 C14.1413925,29.7594 18.5247277,31.9050554 18.5247277,31.9050554 C18.5247277,31.9050554 17.2417358,35.1230962 17.5627042,36.4104894 C17.5627042,36.4104894 23.375407,42.6687248 23.9776638,42.6324476 C25.4537657,42.5439671 28.0400305,41.4530008 28.0400305,41.4530008 C28.0400305,41.4530008 29.7506864,45.2072342 30.070773,46.1725578 C30.3917414,47.1387664 30.8194054,47.245828 31.8890063,46.7096354 C32.9577253,46.1725578 35.7274006,43.403114 36.1118572,41.3990276 C36.3790371,40.0045728 36.2723414,36.946682 36.2723414,36.946682 C36.2723414,36.946682 38.6575601,35.8681031 43.6493245,28.7940763 C48.8341989,21.4457595 49.1013787,10.5564477 49.1013787,10.5564477 C49.1013787,10.5564477 39.105505,11.4518717 31.0398508,16.4572212" id="Fill-35" fill="#FFFFFF" fill-rule="nonzero"></path>
                </g>
            </g>
        </g>
    </g>
</svg>