<?xml version="1.0" encoding="UTF-8"?>
<svg width="55px" height="59px" viewBox="0 0 55 59" version="1.1" xmlns="http://www.w3.org/2000/svg" xmlns:xlink="http://www.w3.org/1999/xlink">
    <title>Group 15 Copy 3</title>
    <g id="Page-1" stroke="none" stroke-width="1" fill="none" fill-rule="evenodd">
        <g id="Cosmobile---homepage-2" transform="translate(-1243.000000, -1724.000000)" fill="#DDDB00">
            <g id="Group-15-Copy-3" transform="translate(1243.000000, 1724.000000)">
                <g id="Group-11">
                    <path d="M29.26,15.84 L25.96,29.37 C25.96,29.37 25.96,29.37 25.96,29.37 C25.96,29.37 25.96,29.37 25.96,29.37 L25.63,30.58 L25.3,31.57 L26.95,39.05 L36.3,26.95 L29.26,15.84 Z" id="Fill-1"></path>
                    <path d="M28.05,14.52 L15.62,12.1 L19.03,17.6 C19.03,17.6 19.03,17.6 19.03,17.6 L24.97,27.17 L28.05,14.52 Z" id="Fill-3"></path>
                    <polygon id="Fill-5" points="39.38 35.53 39.82 34.54 34.98 37.07"></polygon>
                    <polygon id="Fill-7" points="17.93 18.7 13.97 18.59 23.87 28.38 23.76 28.16"></polygon>
                    <path d="M25.85,40.81 C25.85,40.81 25.85,40.81 25.85,40.81 L25.52,39.27 L24.42,34.32 L20.24,46.97 L26.51,43.23 L25.85,40.81 C25.85,40.92 25.85,40.92 25.85,40.81" id="Fill-9"></path>
                    <polygon id="Fill-11" points="29.26 38.39 40.15 32.67 37.18 28.16"></polygon>
                    <path d="M46.97,32.78 C46.86,33 46.64,33.11 46.42,33.11 L46.42,33.11 C46.42,33.11 46.31,33.11 46.31,33.11 L42.24,32.34 L41.91,33 C41.91,33 41.91,33 41.91,33.11 C41.91,33.11 41.91,33.22 41.8,33.22 L40.7,36.3 C40.59,36.52 40.48,36.63 40.26,36.74 L27.5,41.03 L28.05,43.34 C28.16,43.67 27.94,44 27.72,44.11 L19.36,49.06 C19.25,49.17 19.14,49.17 19.03,49.17 C18.81,49.17 18.7,49.06 18.59,49.06 C18.59,49.06 18.59,49.06 18.59,49.06 C18.37,48.84 18.26,48.51 18.37,48.29 L23.98,31.24 L24.2,30.47 L11.55,18.15 C11.33,17.93 11.22,17.6 11.44,17.38 C11.55,17.05 11.88,16.94 12.1,16.94 L16.94,17.16 L13.42,11.44 C13.31,11.22 13.31,10.89 13.42,10.67 C13.64,10.45 13.86,10.34 14.19,10.34 L29.04,13.2 C29.04,13.2 29.04,13.2 29.15,13.2 C29.26,13.2 29.26,13.2 29.37,13.31 C29.37,13.31 29.37,13.31 29.48,13.31 C29.59,13.31 29.59,13.42 29.7,13.53 L37.95,26.29 L43.56,26.29 L43.56,26.29 L43.56,26.29 C43.56,26.29 43.56,26.29 43.56,26.29 C43.67,26.29 43.67,26.29 43.78,26.29 C43.78,26.29 43.78,26.29 43.78,26.29 C43.78,26.29 43.89,26.29 43.89,26.4 C43.89,26.4 43.89,26.4 43.89,26.4 C43.89,26.4 44,26.4 44,26.51 C44,26.51 44,26.51 44,26.62 C44,26.62 44,26.62 44,26.62 C44,26.62 44,26.62 44,26.62 C44,26.62 44,26.62 44,26.62 L46.97,32.01 C47.19,32.23 47.19,32.56 46.97,32.78 M47.19,9.13 L34.76,1.98 C30.14,-0.66 24.42,-0.66 19.8,1.98 L7.48,9.13 C2.86,11.88 0,16.72 0,22.11 L0,36.41 C0,41.69 2.86,46.64 7.48,49.28 L19.91,56.43 C24.53,59.07 30.25,59.07 34.87,56.43 L47.3,49.28 C51.92,46.64 54.78,41.69 54.78,36.41 L54.78,22.11 C54.67,16.72 51.81,11.88 47.19,9.13" id="Fill-13"></path>
                    <polygon id="Fill-15" points="42.9 30.36 42.68 31.02 44.99 31.46 43.56 28.71"></polygon>
                    <polygon id="Fill-17" points="41.03 31.24 42.35 27.72 38.72 27.72"></polygon>
                </g>
            </g>
        </g>
    </g>
</svg>